<svg id="icn_formula_Fx" xmlns="http://www.w3.org/2000/svg" width="24" height="24" viewBox="0 0 24 24">
  <rect id="bg" width="24" height="24" fill="none"/>
  <path id="Path_2" data-name="Path 2" d="M4.492,5.594l-.662.749.065.283H5.6c-.348,2.015-.609,3.831-1.108,6.631-.6,3.571-.941,4.448-1.144,4.769a.854.854,0,0,1-.785.482,2.676,2.676,0,0,1-1.445-.646.393.393,0,0,0-.459.042A1.683,1.683,0,0,0,0,19.014c-.02.527.685.986,1.357.986a3.848,3.848,0,0,0,2.383-1.243c1.255-1.19,2.194-2.822,2.979-6.351.5-2.253.742-3.717,1.1-5.778l2.119-.192.459-.841H8.006C8.623,1.714,9.1,1.139,9.7,1.139c.394,0,.853.3,1.38.9a.369.369,0,0,0,.57.046,1.539,1.539,0,0,0,.7-1.055C12.361.57,11.814,0,10.874,0A5.155,5.155,0,0,0,7.615,1.689,7.8,7.8,0,0,0,5.8,5.594Zm6.781,2.6c.658-.876,1.051-1.167,1.255-1.167s.378.207.737,1.369l.615,1.984c-1.19,1.82-2.061,2.834-2.59,2.834a.677.677,0,0,1-.479-.179.63.63,0,0,0-.394-.226,1.19,1.19,0,0,0-.986,1.185,1.072,1.072,0,0,0,1.074,1.147c1.056,0,1.95-1.037,3.675-3.786l.5,1.7c.433,1.462.941,2.085,1.576,2.085.785,0,1.839-.669,2.99-2.477l-.482-.55c-.692.833-1.151,1.224-1.423,1.224-.3,0-.568-.462-.918-1.6l-.737-2.4a16.665,16.665,0,0,1,1.243-1.615c.449-.513.8-.731,1.032-.731a.647.647,0,0,1,.479.2c.142.156.226.229.394.229a1.192,1.192,0,0,0,.986-1.12.986.986,0,0,0-.986-1.1c-.964,0-1.813.83-3.449,3.262l-.337-1.043c-.472-1.465-.785-2.218-1.442-2.218-.765,0-1.816.941-2.845,2.432l.506.55Z" transform="translate(2.002 2)"/>
</svg>
